<svg xmlns="http://www.w3.org/2000/svg" viewBox="0 0 767 767"><circle cx="383.5" cy="383.5" r="383" style="fill:#01baef;stroke:#e6e6e9;stroke-miterlimit:10"/><path d="M253.2,264.19a8.5,8.5,0,0,0,9.4-3.83l9.44-17c7.75-13.75,19.25-21.62,31.48-21.62s23.86,7.88,31.48,21.62l9.57,17a7.84,7.84,0,0,0,9.23,3.83,8.23,8.23,0,0,0,5.69-8.38c-3.19-42.12-32.19-71.42-56.89-71.42-23.73,0-52.54,29.25-55.81,71.38C247.3,259.49,249.6,263,253.2,264.19Zm160,0a8.5,8.5,0,0,0,9.4-3.83l9.49-17c7.63-13.75,19.13-21.62,31.48-21.62s23.81,7.88,31.56,21.62l9.45,17a7.89,7.89,0,0,0,9.25,3.83,8,8,0,0,0,5.69-8.38c-3.32-42.12-32.22-71.42-56-71.42s-52.64,29.25-55.91,71.38A8.47,8.47,0,0,0,413.2,264.19Zm82.51,77.93C468.11,351,426.4,356,383.5,356s-84.61-5-112.2-13.84A14.71,14.71,0,0,0,257.4,345a14.91,14.91,0,0,0-4.85,13.56c8.38,50.09,75.72,84.93,131,84.93s122.59-34.84,131-84.93A15,15,0,0,0,509.74,345,14.59,14.59,0,0,0,495.71,342.12ZM383.5,416.39c-34.1,0-77-16.25-98.45-40.25,57.4,10.75,139.5,10.75,197,0C460.5,400.19,417.6,416.39,383.5,416.39Zm0-384c-141.4,0-256,114.6-256,256s114.6,256,256,256,256-114.6,256-256S524.9,32.39,383.5,32.39Zm0,480c-123.5,0-224-100.5-224-224s100.5-224,224-224,224,100.5,224,224S507,512.39,383.5,512.39Z" style="fill:#fff;stroke:#e6e6e9;stroke-miterlimit:10"/><path d="M666.79,457.91l-272,272a16,16,0,0,1-22.61,0l-144-144A16,16,0,1,1,250.8,563.3L383.49,696l260.7-260.7a16,16,0,1,1,22.6,22.6Z" style="fill:#fff;stroke:#e6e6e9;stroke-miterlimit:10"/></svg>